<svg width="468" height="100" viewBox="0 0 468 100" fill="none" xmlns="http://www.w3.org/2000/svg">
<path d="M88.3612 0H11.6388C5.21088 0 0 5.21088 0 11.6388V88.3612C0 94.7891 5.21088 100 11.6388 100H88.3612C94.7891 100 100 94.7891 100 88.3612V11.6388C100 5.21088 94.7891 0 88.3612 0Z" fill="#2B63FF"/>
<path d="M67.6826 29.792H32.318C29.5278 29.792 27.2659 32.0539 27.2659 34.8441V70.2087C27.2659 72.9988 29.5278 75.2607 32.318 75.2607H67.6826C70.4728 75.2607 72.7347 72.9988 72.7347 70.2087V34.8441C72.7347 32.0539 70.4728 29.792 67.6826 29.792Z" stroke="white" stroke-width="5.05208" stroke-linecap="round" stroke-linejoin="round"/>
<path d="M60.1045 24.74V34.8442" stroke="white" stroke-width="5.05208" stroke-linecap="round" stroke-linejoin="round"/>
<path d="M39.8961 24.74V34.8442" stroke="white" stroke-width="5.05208" stroke-linecap="round" stroke-linejoin="round"/>
<path d="M27.2659 44.9482H72.7347" stroke="white" stroke-width="5.05208" stroke-linecap="round" stroke-linejoin="round"/>
<path d="M148.72 38.12C148.72 40.8933 148.32 43.8533 147.52 47C146.72 50.0933 145.6 53.1867 144.16 56.28C142.72 59.32 140.933 62.2533 138.8 65.08C136.72 67.8533 134.347 70.3067 131.68 72.44C129.013 74.52 126.08 76.2 122.88 77.48C119.733 78.76 116.373 79.4 112.8 79.4C112.053 79.4 111.307 79.3467 110.56 79.24C109.813 79.1867 109.067 79.1067 108.32 79C109.76 71.64 111.173 64.4667 112.56 57.48C113.093 54.5467 113.653 51.5067 114.24 48.36C114.827 45.16 115.387 42.0133 115.92 38.92C116.453 35.8267 116.96 32.8667 117.44 30.04C117.973 27.2133 118.4 24.6533 118.72 22.36C121.013 21.9333 123.333 21.5333 125.68 21.16C128.027 20.7867 130.427 20.6 132.88 20.6C135.76 20.6 138.187 21.0533 140.16 21.96C142.187 22.8667 143.813 24.12 145.04 25.72C146.32 27.32 147.253 29.1867 147.84 31.32C148.427 33.4533 148.72 35.72 148.72 38.12ZM129.84 31.88C129.253 35.0267 128.64 38.04 128 40.92C127.36 43.8 126.72 46.7067 126.08 49.64C125.44 52.5733 124.8 55.64 124.16 58.84C123.52 62.04 122.907 65.5333 122.32 69.32C123.6 68.4667 124.827 67.32 126 65.88C127.227 64.3867 128.373 62.68 129.44 60.76C130.507 58.84 131.467 56.8133 132.32 54.68C133.227 52.5467 134 50.4667 134.64 48.44C135.28 46.4133 135.76 44.52 136.08 42.76C136.453 41 136.64 39.48 136.64 38.2C136.64 36.2267 136.08 34.68 134.96 33.56C133.893 32.44 132.187 31.88 129.84 31.88ZM143.953 79.08L154.433 22.2L179.713 20.04C179.339 21.2133 179.019 22.4133 178.753 23.64C178.486 24.6533 178.219 25.72 177.953 26.84C177.739 27.9067 177.553 28.8667 177.393 29.72C176.859 29.7733 176.086 29.8267 175.073 29.88C174.113 29.88 173.073 29.9067 171.953 29.96C170.833 29.96 169.686 29.96 168.513 29.96C167.393 29.96 166.406 29.96 165.553 29.96L162.753 44.28C164.406 44.1733 165.953 44.0933 167.393 44.04C168.566 43.9867 169.766 43.96 170.993 43.96C172.219 43.96 173.126 43.9333 173.713 43.88C173.499 45.3733 173.286 46.84 173.073 48.28C172.913 49.72 172.699 51.1867 172.433 52.68C171.899 52.7333 171.019 52.7867 169.793 52.84C168.619 52.84 167.419 52.8667 166.193 52.92C164.806 52.9733 163.286 53.0267 161.633 53.08L158.913 67.8L170.593 65.96L169.793 75.08L143.953 79.08ZM175.298 79.72C175.991 72.2533 176.631 64.92 177.218 57.72C177.485 54.7333 177.725 51.5867 177.938 48.28C178.205 44.9733 178.418 41.72 178.578 38.52C178.791 35.2667 178.951 32.1467 179.058 29.16C179.165 26.12 179.245 23.3467 179.298 20.84C180.578 20.84 181.938 20.8133 183.378 20.76C184.871 20.7067 186.205 20.6533 187.378 20.6C188.605 20.5467 189.645 20.4933 190.498 20.44C191.351 20.3333 191.778 20.28 191.778 20.28C191.191 26.4667 190.685 31.56 190.258 35.56C189.831 39.5067 189.485 42.7333 189.218 45.24C189.005 47.6933 188.791 50.0667 188.578 52.36C188.418 54.6533 188.231 56.7867 188.018 58.76C187.805 60.7333 187.618 62.4133 187.458 63.8H188.898L197.858 21.24C199.298 21.1867 200.765 21.1067 202.258 21C203.591 20.8933 204.978 20.8133 206.418 20.76C207.911 20.7067 209.271 20.6 210.498 20.44C209.751 22.7867 208.978 25.3733 208.178 28.2C207.431 31.0267 206.631 33.96 205.778 37C204.978 40.04 204.178 43.1333 203.378 46.28C202.631 49.4267 201.885 52.4667 201.138 55.4C199.431 62.28 197.725 69.3467 196.018 76.6L175.298 79.72ZM235.051 61.8C233.771 64.7333 232.331 67.2933 230.731 69.48C229.184 71.6133 227.531 73.4267 225.771 74.92C224.064 76.36 222.331 77.4267 220.571 78.12C218.811 78.8133 217.104 79.16 215.451 79.16C213.797 79.16 212.277 78.7867 210.891 78.04C209.557 77.2933 208.384 76.1733 207.371 74.68C206.357 73.1867 205.531 71.3467 204.891 69.16C204.304 66.9733 204.011 64.4133 204.011 61.48C204.011 56.4667 204.704 51.5333 206.091 46.68C207.477 41.7733 209.424 37.3733 211.931 33.48C214.437 29.5867 217.397 26.4667 220.811 24.12C224.277 21.72 228.091 20.52 232.251 20.52C233.531 20.52 234.757 20.7867 235.931 21.32C237.104 21.8533 238.117 22.6 238.971 23.56C239.824 24.52 240.491 25.6933 240.971 27.08C241.504 28.4667 241.771 30.0133 241.771 31.72C241.771 32.04 241.771 32.3867 241.771 32.76C241.771 33.08 241.744 33.4267 241.691 33.8L231.211 36.6C230.571 35.2667 229.824 34.6 228.971 34.6C228.117 34.6 227.211 35.1067 226.251 36.12C225.344 37.08 224.437 38.36 223.531 39.96C222.624 41.5067 221.744 43.2667 220.891 45.24C220.037 47.16 219.291 49.1067 218.651 51.08C218.011 53.0533 217.477 54.9467 217.051 56.76C216.677 58.52 216.491 59.96 216.491 61.08C216.491 62.7867 216.704 63.9867 217.131 64.68C217.611 65.3733 218.224 65.72 218.971 65.72C219.557 65.72 220.224 65.5067 220.971 65.08C221.717 64.6 222.411 64.0133 223.051 63.32C223.691 62.5733 224.277 61.7467 224.811 60.84C225.344 59.9333 225.717 59.0267 225.931 58.12L235.051 61.8ZM263.456 77.4C262.122 77.6133 260.656 77.8533 259.056 78.12C257.456 78.3867 256.016 78.6267 254.736 78.84C254.949 77.08 255.162 75.3467 255.376 73.64C255.536 72.1467 255.669 70.6533 255.776 69.16C255.936 67.6667 256.069 66.3867 256.176 65.32H249.216L246.016 76.84C244.842 77 243.456 77.1867 241.856 77.4C240.256 77.56 238.762 77.72 237.376 77.88C235.669 78.0933 233.989 78.3067 232.336 78.52C234.469 71.4267 236.576 64.44 238.656 57.56C239.509 54.68 240.389 51.6667 241.296 48.52C242.256 45.3733 243.189 42.2533 244.096 39.16C245.056 36.0133 245.962 33 246.816 30.12C247.669 27.24 248.416 24.6 249.056 22.2C252.682 21.9333 256.362 21.6133 260.096 21.24C263.882 20.8667 267.562 20.36 271.136 19.72C270.976 21.4267 270.789 23.56 270.576 26.12C270.416 28.6267 270.256 31.3733 270.096 34.36C269.936 37.3467 269.776 40.4667 269.616 43.72C269.456 46.9733 269.296 50.1733 269.136 53.32C268.869 60.68 268.576 68.4933 268.256 76.76C266.656 77.0267 265.056 77.24 263.456 77.4ZM251.136 57.32C251.349 57.32 251.722 57.32 252.256 57.32C252.842 57.2667 253.429 57.24 254.016 57.24C254.656 57.1867 255.242 57.16 255.776 57.16C256.309 57.1067 256.682 57.0533 256.896 57C256.896 56.68 256.922 56.1467 256.976 55.4C257.082 54.6 257.162 53.72 257.216 52.76C257.322 51.7467 257.429 50.6533 257.536 49.48C257.642 48.3067 257.749 47.16 257.856 46.04C258.069 43.32 258.336 40.3867 258.656 37.24L259.136 30.28L257.936 30.36L256.096 37.24L251.136 57.32ZM290.705 76.44C289.052 76.44 287.292 76.4933 285.425 76.6C283.612 76.7067 281.772 76.8667 279.905 77.08C278.038 77.2933 276.198 77.5867 274.385 77.96C272.625 78.28 271.025 78.68 269.585 79.16C269.905 76.76 270.278 74.0933 270.705 71.16C271.132 68.2267 271.612 65.1867 272.145 62.04C272.732 58.8933 273.292 55.72 273.825 52.52C274.412 49.32 274.998 46.2533 275.585 43.32C276.918 36.3333 278.332 29.2133 279.825 21.96L293.825 20.12C292.385 26.3067 290.998 32.3333 289.665 38.2C289.078 40.7067 288.492 43.32 287.905 46.04C287.318 48.7067 286.758 51.32 286.225 53.88C285.692 56.44 285.212 58.92 284.785 61.32C284.358 63.72 284.012 65.8533 283.745 67.72C285.078 67.6133 286.492 67.56 287.985 67.56C289.532 67.5067 290.892 67.48 292.065 67.48C292.118 68.4933 292.198 69.5067 292.305 70.52C292.412 71.48 292.518 72.36 292.625 73.16C292.785 73.96 292.892 74.68 292.945 75.32C293.052 75.9067 293.132 76.3067 293.185 76.52C292.758 76.52 292.332 76.52 291.905 76.52C291.532 76.4667 291.132 76.44 290.705 76.44ZM293.406 79.08L303.886 22.2L329.166 20.04C328.792 21.2133 328.472 22.4133 328.206 23.64C327.939 24.6533 327.672 25.72 327.406 26.84C327.192 27.9067 327.006 28.8667 326.846 29.72C326.312 29.7733 325.539 29.8267 324.526 29.88C323.566 29.88 322.526 29.9067 321.406 29.96C320.286 29.96 319.139 29.96 317.966 29.96C316.846 29.96 315.859 29.96 315.006 29.96L312.206 44.28C313.859 44.1733 315.406 44.0933 316.846 44.04C318.019 43.9867 319.219 43.96 320.446 43.96C321.672 43.96 322.579 43.9333 323.166 43.88C322.952 45.3733 322.739 46.84 322.526 48.28C322.366 49.72 322.152 51.1867 321.886 52.68C321.352 52.7333 320.472 52.7867 319.246 52.84C318.072 52.84 316.872 52.8667 315.646 52.92C314.259 52.9733 312.739 53.0267 311.086 53.08L308.366 67.8L320.046 65.96L319.246 75.08L293.406 79.08ZM320.431 79.4C322.031 71.72 323.551 64.28 324.991 57.08C325.525 53.9867 326.085 50.7867 326.671 47.48C327.311 44.1733 327.898 40.92 328.431 37.72C328.965 34.4667 329.445 31.3733 329.871 28.44C330.298 25.4533 330.618 22.76 330.831 20.36C331.525 20.4133 332.111 20.44 332.591 20.44C333.071 20.44 333.631 20.44 334.271 20.44C335.018 20.44 335.925 20.44 336.991 20.44C338.058 20.3867 339.125 20.3333 340.191 20.28C341.258 20.2267 342.405 20.1733 343.631 20.12C344.378 23.8533 345.045 27.4533 345.631 30.92C346.218 33.96 346.805 37.08 347.391 40.28C348.031 43.48 348.591 46.2 349.071 48.44C349.285 47.3733 349.525 46.1467 349.791 44.76C350.058 43.32 350.351 41.8267 350.671 40.28C350.991 38.7333 351.285 37.1867 351.551 35.64C351.871 34.04 352.191 32.4667 352.511 30.92C353.258 27.4533 354.031 23.88 354.831 20.2L364.591 19C362.778 27.16 361.178 34.8933 359.791 42.2C359.151 45.3467 358.511 48.5467 357.871 51.8C357.285 55 356.725 58.0933 356.191 61.08C355.658 64.0133 355.205 66.76 354.831 69.32C354.458 71.8267 354.165 73.9333 353.951 75.64C353.791 75.64 353.151 75.7733 352.031 76.04C350.965 76.2533 349.711 76.52 348.271 76.84C346.885 77.16 345.471 77.48 344.031 77.8C342.645 78.12 341.605 78.4133 340.911 78.68C340.591 74.4133 340.245 70.36 339.871 66.52C339.711 64.8667 339.525 63.1867 339.311 61.48C339.151 59.72 338.965 58.04 338.751 56.44C338.538 54.84 338.325 53.3467 338.111 51.96C337.898 50.5733 337.685 49.3733 337.471 48.36C337.311 49.3733 337.098 50.5467 336.831 51.88C336.565 53.2133 336.298 54.6267 336.031 56.12C335.765 57.6133 335.498 59.1867 335.231 60.84C334.965 62.44 334.671 63.9867 334.351 65.48C333.658 69.0533 332.911 72.7867 332.111 76.68L320.431 79.4ZM396.923 38.12C396.923 40.8933 396.523 43.8533 395.723 47C394.923 50.0933 393.803 53.1867 392.363 56.28C390.923 59.32 389.136 62.2533 387.003 65.08C384.923 67.8533 382.55 70.3067 379.883 72.44C377.216 74.52 374.283 76.2 371.083 77.48C367.936 78.76 364.576 79.4 361.003 79.4C360.256 79.4 359.51 79.3467 358.763 79.24C358.016 79.1867 357.27 79.1067 356.523 79C357.963 71.64 359.376 64.4667 360.763 57.48C361.296 54.5467 361.856 51.5067 362.443 48.36C363.03 45.16 363.59 42.0133 364.123 38.92C364.656 35.8267 365.163 32.8667 365.643 30.04C366.176 27.2133 366.603 24.6533 366.923 22.36C369.216 21.9333 371.536 21.5333 373.883 21.16C376.23 20.7867 378.63 20.6 381.083 20.6C383.963 20.6 386.39 21.0533 388.363 21.96C390.39 22.8667 392.016 24.12 393.243 25.72C394.523 27.32 395.456 29.1867 396.043 31.32C396.63 33.4533 396.923 35.72 396.923 38.12ZM378.043 31.88C377.456 35.0267 376.843 38.04 376.203 40.92C375.563 43.8 374.923 46.7067 374.283 49.64C373.643 52.5733 373.003 55.64 372.363 58.84C371.723 62.04 371.11 65.5333 370.523 69.32C371.803 68.4667 373.03 67.32 374.203 65.88C375.43 64.3867 376.576 62.68 377.643 60.76C378.71 58.84 379.67 56.8133 380.523 54.68C381.43 52.5467 382.203 50.4667 382.843 48.44C383.483 46.4133 383.963 44.52 384.283 42.76C384.656 41 384.843 39.48 384.843 38.2C384.843 36.2267 384.283 34.68 383.163 33.56C382.096 32.44 380.39 31.88 378.043 31.88ZM420.956 77.4C419.622 77.6133 418.156 77.8533 416.556 78.12C414.956 78.3867 413.516 78.6267 412.236 78.84C412.449 77.08 412.662 75.3467 412.876 73.64C413.036 72.1467 413.169 70.6533 413.276 69.16C413.436 67.6667 413.569 66.3867 413.676 65.32H406.716L403.516 76.84C402.342 77 400.956 77.1867 399.356 77.4C397.756 77.56 396.262 77.72 394.876 77.88C393.169 78.0933 391.489 78.3067 389.836 78.52C391.969 71.4267 394.076 64.44 396.156 57.56C397.009 54.68 397.889 51.6667 398.796 48.52C399.756 45.3733 400.689 42.2533 401.596 39.16C402.556 36.0133 403.462 33 404.316 30.12C405.169 27.24 405.916 24.6 406.556 22.2C410.182 21.9333 413.862 21.6133 417.596 21.24C421.382 20.8667 425.062 20.36 428.636 19.72C428.476 21.4267 428.289 23.56 428.076 26.12C427.916 28.6267 427.756 31.3733 427.596 34.36C427.436 37.3467 427.276 40.4667 427.116 43.72C426.956 46.9733 426.796 50.1733 426.636 53.32C426.369 60.68 426.076 68.4933 425.756 76.76C424.156 77.0267 422.556 77.24 420.956 77.4ZM408.636 57.32C408.849 57.32 409.222 57.32 409.756 57.32C410.342 57.2667 410.929 57.24 411.516 57.24C412.156 57.1867 412.742 57.16 413.276 57.16C413.809 57.1067 414.182 57.0533 414.396 57C414.396 56.68 414.422 56.1467 414.476 55.4C414.582 54.6 414.662 53.72 414.716 52.76C414.822 51.7467 414.929 50.6533 415.036 49.48C415.142 48.3067 415.249 47.16 415.356 46.04C415.569 43.32 415.836 40.3867 416.156 37.24L416.636 30.28L415.436 30.36L413.596 37.24L408.636 57.32ZM426.445 79.08C427.885 71.9867 429.272 65.0533 430.605 58.28C431.085 55.4 431.618 52.4133 432.205 49.32C432.792 46.1733 433.325 43.08 433.805 40.04C434.338 36.9467 434.818 33.9867 435.245 31.16C435.725 28.28 436.098 25.6667 436.365 23.32C439.405 22.36 442.685 21.6667 446.205 21.24C449.725 20.76 453.218 20.52 456.685 20.52C458.765 20.52 460.472 20.76 461.805 21.24C463.192 21.72 464.258 22.4133 465.005 23.32C465.805 24.1733 466.365 25.1867 466.685 26.36C467.005 27.5333 467.165 28.84 467.165 30.28C467.165 32.4133 466.792 34.52 466.045 36.6C465.298 38.6267 464.285 40.5733 463.005 42.44C461.778 44.2533 460.338 45.9333 458.685 47.48C457.085 48.9733 455.352 50.2 453.485 51.16C454.445 53.2933 455.458 55.64 456.525 58.2C457.645 60.7067 458.685 63.1067 459.645 65.4C460.712 68.0667 461.805 70.7333 462.925 73.4L450.525 77.72C449.458 74.3067 448.498 71.1067 447.645 68.12C447.272 66.8933 446.898 65.64 446.525 64.36C446.152 63.0267 445.805 61.7733 445.485 60.6C445.165 59.4267 444.898 58.3867 444.685 57.48C444.472 56.52 444.338 55.7467 444.285 55.16L443.245 55.48C442.925 57.1867 442.525 59.1867 442.045 61.48C441.618 63.7733 441.218 65.9867 440.845 68.12C440.365 70.6267 439.885 73.16 439.405 75.72L426.445 79.08ZM445.245 44.36C446.258 44.2533 447.485 43.8267 448.925 43.08C450.418 42.3333 451.832 41.4533 453.165 40.44C454.498 39.3733 455.645 38.28 456.605 37.16C457.565 36.04 458.045 35.0533 458.045 34.2C458.045 33.6133 457.858 33.16 457.485 32.84C457.112 32.4667 456.578 32.2 455.885 32.04C455.245 31.8267 454.525 31.6933 453.725 31.64C452.925 31.5867 452.098 31.56 451.245 31.56C450.658 31.56 450.045 31.5867 449.405 31.64C448.818 31.64 448.285 31.64 447.805 31.64L445.245 44.36Z" fill="#D4E4FD"/>
</svg>
